<svg xmlns="http://www.w3.org/2000/svg" width="778px" height="382px" viewBox="-210 403.1 778 382" enable-background="new -210 403.1 778 382" xml:space="preserve">
  <circle fill="#E55C53" cx="-125.1" cy="558.7" r="14.1"/>
  <circle fill="#E55C53" cx="-150" cy="618.7" r="14.1"/>
  <circle fill="#E55C53" cx="-150" cy="498.7" r="14.1"/>
  <circle fill="#E55C53" cx="-188" cy="640.7" r="14.1"/>
  <circle fill="#E55C53" cx="-128" cy="536.7" r="14.1"/>
  <circle fill="#E55C53" cx="-136.5" cy="601.2" r="14.1"/>
  <circle fill="#E55C53" cx="-167.6" cy="485.2" r="14.1"/>
  <circle fill="#E55C53" cx="-167.6" cy="632.2" r="14.1"/>
  <circle fill="#E55C53" cx="-136.5" cy="516.3" r="14.1"/>
  <circle fill="#E55C53" cx="-128" cy="580.7" r="14.1"/>
  <circle fill="#E55C53" cx="-188" cy="476.7" r="14.1"/>
  <path fill="#7EAB67" d="M511.4,785.1c0-117.2-57-212.2-127.3-212.2s-127.3,95-127.3,212.2"/>
  <path fill="#36423D" d="M384.1,601.2c-15.6,0-28.3,12.7-28.3,28.3v28.3h56.6v-28.3C412.4,613.8,399.7,601.2,384.1,601.2z"/>
  <path fill="#9CD4DE" d="M398.3,650.7c-7.1,0-7-7.1-14.1-7.1s-7.1,7.1-14.2,7.1s-7.1-7.1-14.2-7.1v24.8h7.1V771h7.1V668.4h7.1V771h7.1V668.4h7.1V771h7.1V668.4h7.1V771h7.1V643.6C405.3,643.6,405.3,650.7,398.3,650.7L398.3,650.7z"/>
  <path fill="#309AB1" d="M405.3,647.1v123.8h-7.1V650.7C401.8,650.7,403.6,648.9,405.3,647.1z M391.2,647.1v123.8h-7.1V643.6C387.6,643.6,389.4,645.4,391.2,647.1z M377,771h-7V650.7c3.5,0,5.3-1.8,7.1-3.5L377,771L377,771z M362.9,771h-7.1V643.6c3.5,0,5.3,1.8,7.1,3.5V771z"/>
  <path fill="#9CD4DE" d="M101.1,749.7c26.5,0,26.5,14.1,53.1,14.1s26.5-14.1,53.1-14.1c26.5,0,26.5,14.1,53.1,14.1c26.5,0,26.5-14.1,53.1-14.1c26.5,0,26.5,14.1,53.1,14.1c26.5,0,26.5-14.1,53.1-14.1c26.5,0,26.5,14.1,53.1,14.1l53-14.1v35.4H101.1L101.1,749.7L101.1,749.7z"/>
  <path fill="none" stroke="#F8F4E3" stroke-width="6" stroke-miterlimit="10" d="M224.9,583.5v166.2"/>
  <g class="hero-img-fan">
    <path fill="#E55C53" d="M224.9,583.5c17.9,5.1,34.8,14.7,48.9,28.8c5.5,5.5,5.5,14.5,0,20.1c-5.5,5.6-14.5,5.5-20.1,0C239.7,618.3,230.1,601.4,224.9,583.5L224.9,583.5z M176,534.6c5.5-5.5,14.5-5.5,20.1,0c14.1,14.1,23.7,31,28.8,48.9c-17.9-5.1-34.8-14.8-48.9-28.9C170.5,549.1,170.5,540.1,176,534.6L176,534.6z"/>
    <path fill="#F8F4E3" d="M224.9,583.5c5.1-17.9,14.7-34.8,28.8-48.9c5.5-5.5,14.5-5.5,20.1,0s5.5,14.5,0,20.1C259.7,568.7,242.8,578.4,224.9,583.5L224.9,583.5z M176,632.4c-5.5-5.5-5.5-14.5,0-20.1c14.1-14.1,31-23.7,48.9-28.8c-5.1,17.9-14.7,34.8-28.8,48.9C190.5,637.9,181.6,637.9,176,632.4L176,632.4z"/>
  </g>
  <circle fill="#F8F4E3" cx="224.9" cy="583.5" r="14.2"/>
  <circle fill="#E55C53" cx="224.9" cy="583.5" r="3.5"/>
  <path fill="#F2D50A" d="M-40.2,657.8h70.7V771h-70.7V657.8z"/>
  <circle fill="#7EAB67" cx="-11.9" cy="587" r="70.7"/>
  <path fill="#F2D50A" d="M-153.4,473.8h141.5v311.3h-141.5L-153.4,473.8z"/>
  <path fill="#F8F4E3" d="M568,785.1c0-39.1-25.3-70.7-56.6-70.7s-56.6,31.7-56.6,70.7"/>
  <path fill="#309AB1" d="M-210,431.4v353.7h84.9l-28.3-70.7V473.8L-210,431.4z"/>
  <path fill="#7EAB67" d="M2.2,587h141.5v70.7H2.2V587z"/>
  <path fill="#309AB1" d="M2.2,608.2l28.3,35.4V587H2.2V608.2z"/>
  <path fill="#F2D50A" d="M271.1,785.1c-12.6-48.8-56.9-84.9-109.6-84.9c-52.7,0-97.1,36.1-109.6,84.9H271.1L271.1,785.1z"/>
  <path fill="#309AB1" d="M-139.3,572.9h84.9l56.6,70.7H-111l-28.3-35.4V572.9z"/>
  <g>
    <path fill="#36423D" d="M-210,714.4c0,39,31.6,70.7,70.7,70.7h70.7V643.7h-70.7C-178.3,643.7-210,675.3-210,714.4z"/>
    <path fill="#36423D" d="M16.3,649.6C-8.6,660.5-26,685.4-26,714.4c0,39,31.6,70.7,70.7,70.7h70.7V649.8L16.3,649.6z"/>
  </g>
  <path fill="#309AB1" d="M115.4,643.6V587H73v56.6H-68.5c-39.1,0-70.7,31.7-70.7,70.7s31.7,70.7,70.7,70.7h183.9c39.1,0,70.7-31.7,70.7-70.7S154.5,643.6,115.4,643.6z M115.4,771H-68.5c-31.3,0-56.6-25.3-56.6-56.6c0-31.3,25.3-56.6,56.6-56.6h183.9c31.3,0,56.6,25.3,56.6,56.6C172,745.7,146.7,771,115.4,771z"/>
  <circle fill="#F8F4E3" cx="115.4" cy="714.4" r="56.6"/>
  <circle fill="#7EAB67" cx="115.4" cy="714.4" r="28.3"/>
  <circle fill="#36423D" cx="115.4" cy="714.4" r="7.1"/>
  <circle fill="#F8F4E3" cx="-68.5" cy="714.4" r="56.6"/>
  <circle fill="#7EAB67" cx="-68.5" cy="714.4" r="28.3"/>
  <circle fill="#36423D" cx="-68.5" cy="714.4" r="7.1"/>
  <path fill="#E55C53" d="M-82.7,643.6H30.5l-56.6-70.7h-113.2L-82.7,643.6z"/>
  <path fill="#36423D" d="M-82.7,488c31.3,0,56.6,25.3,56.6,56.6v28.3h-113.2v-28.3C-139.3,513.3-113.9,488-82.7,488L-82.7,488z"/>
  <path fill="#F8F4E3" d="M-153.4,473.8l-56.6-42.4h141.5l56.6,42.4H-153.4z"/>
  <path fill="#E55C53" d="M-118,403.1c11.7,0,21.2,9.5,21.2,21.2v21.2h-42.4v-21.2C-139.3,412.6-129.8,403.1-118,403.1L-118,403.1z"/>
  <path fill="#F8F4E3" d="M115.4,558.7c-9.1,0-17.2,4.3-22.4,11c-5.1,5.2-12.2,8.4-20.1,8.4s-15-3.3-20.1-8.4c-5.2-6.7-13.3-11-22.4-11c-15.6,0-28.3,12.7-28.3,28.3s12.7,28.3,28.3,28.3c9.1,0,17.2-4.3,22.4-11c5.2-5.2,12.3-8.4,20.2-8.4s15,3.3,20.1,8.5c5.2,6.7,13.3,11,22.4,11c15.6,0,28.3-12.7,28.3-28.3C143.8,571.5,131.1,558.7,115.4,558.7z"/>
  <circle fill="#E55C53" cx="30.5" cy="587" r="10.6"/>
  <circle fill="#E55C53" cx="115.4" cy="587" r="10.6"/>
</svg>
