<svg xmlns="http://www.w3.org/2000/svg" width="720" height="379.636" viewBox="0 0 520 274.2"><path fill="#7FAB67" d="M397.1 132.4c52.2 0 94.5 63.5 94.5 141.8h-189.1c0-78.3 42.4-141.8 94.6-141.8z"/><path fill="#309BB2" d="M378.2 189.1h37.8v75.6h-37.8z"/><path fill="#E45D53" d="M293.1 189.1c31.3 0 56.7 38.1 56.7 85.1h-113.4c0-47 25.4-85.1 56.7-85.1z"/><path fill="#9CD4DE" d="M189.1 250.5c17.7 0 17.7 9.5 35.5 9.5s17.7-9.5 35.5-9.5c17.7 0 17.7 9.5 35.5 9.5 17.7 0 17.7-9.5 35.5-9.5 17.7 0 17.7 9.5 35.5 9.5 17.7 0 17.7-9.5 35.5-9.5l35.4 9.5 35.4-9.5v23.6h-283.8v-23.6z"/><path fill="#F8F4E4" d="M287.2 139.5h7.1v111.1h-7.1z"/><path fill="#E45D53" d="M290.7 139.5c12 3.4 23.3 9.8 32.7 19.3 3.7 3.7 3.7 9.7 0 13.4-3.7 3.7-9.7 3.7-13.4 0-9.4-9.5-15.8-20.8-19.3-32.7zM258.1 106.8c3.7-3.7 9.7-3.7 13.4 0 9.4 9.4 15.8 20.7 19.3 32.7-12-3.4-23.3-9.8-32.7-19.3-3.8-3.7-3.8-9.7 0-13.4z"/><path fill="#F8F4E4" d="M290.7 139.5c3.4-12 9.8-23.3 19.3-32.7 3.7-3.7 9.7-3.7 13.4 0 3.7 3.7 3.7 9.7 0 13.4-9.4 9.4-20.7 15.8-32.7 19.3zM258 172.1c-3.7-3.7-3.7-9.7 0-13.4 9.4-9.4 20.7-15.8 32.7-19.3-3.4 12-9.8 23.3-19.3 32.7-3.6 3.7-9.6 3.7-13.4 0z"/><circle fill="#F8F4E4" cx="290.7" cy="139.5" r="9.5"/><circle fill="#E45D53" cx="290.7" cy="139.5" r="2.4"/><path fill="#7FAB67" d="M340.4 274.2h-196.5c19.6-33.9 56.3-56.7 98.2-56.7s78.6 22.8 98.3 56.7z"/><path fill="#F1D511" d="M113.5 189.1h47.3v75.6h-47.3zM37.8 47.3h94.5v226.9h-94.5z"/><path fill="#F8F4E4" d="M472.7 226.9c26.1 0 47.3 21.2 47.3 47.3h-94.5c0-26.1 21.1-47.3 47.2-47.3z"/><path fill="#309BB2" d="M0 18.9v255.3h56.7l-18.9-47.3v-179.6z"/><path fill="#7FAB67" d="M141.8 141.8h94.5v47.3h-94.5z"/><path fill="#309BB2" d="M189.1 141.8h28.4v47.3h-28.4zM141.8 141.8h18.9v47.3h-18.9z"/><g fill="#F8F4E4"><circle cx="160.7" cy="141.8" r="18.9"/><circle cx="217.5" cy="141.8" r="18.9"/><path d="M174.8 129.4c3.5 4 8.6 6.5 14.2 6.5 5.7 0 10.8-2.5 14.2-6.5h10.4v24.5h-10.6c-3.5-3.8-8.4-6.1-13.9-6.1s-10.5 2.4-13.9 6.1h-10.3v-24.5h9.9z"/></g><circle fill="#E45D53" cx="160.7" cy="141.8" r="9.5"/><circle fill="#E45D53" cx="217.5" cy="141.8" r="9.5"/><path fill="#309BB2" d="M47.3 132.4h56.7l37.8 47.2h-75.6l-18.9-23.6z"/><path fill="#37433E" d="M47.3 274.2c-26.1 0-47.3-21.2-47.3-47.3 0-26.1 21.2-47.3 47.3-47.3h47.3v94.5h-47.3zM170.2 274.2c-26.1 0-47.3-21.2-47.3-47.3 0-26.1 21.2-47.3 47.3-47.3h47.3v94.5h-47.3z"/><path fill="#309BB2" d="M217.5 264.7c20.9 0 37.8-16.9 37.8-37.8s-16.9-37.8-37.8-37.8v-9.5c26.1 0 47.3 21.2 47.3 47.3 0 26.1-21.2 47.3-47.3 47.3v-9.5zM94.5 179.6v9.5c-20.9 0-37.8 16.9-37.8 37.8s16.9 37.8 37.8 37.8v9.5c-26.1 0-47.3-21.2-47.3-47.3.1-26.1 21.2-47.3 47.3-47.3zM94.5 179.6h122.9v9.5h-122.9zM94.5 264.7h122.9v9.5h-122.9z"/><circle fill="#F8F4E4" cx="217.5" cy="226.9" r="37.8"/><circle fill="#7FAB67" cx="217.5" cy="226.9" r="18.9"/><circle fill="#37433E" cx="217.5" cy="226.9" r="4.7"/><circle fill="#F8F4E4" cx="94.5" cy="226.9" r="37.8"/><circle fill="#7FAB67" cx="94.5" cy="226.9" r="18.9"/><circle fill="#37433E" cx="94.5" cy="226.9" r="4.7"/><path fill="#E45D53" d="M85.1 179.6h75.6l-37.8-47.2h-75.6z"/><path fill="#37433E" d="M85.1 56.7c20.9 0 37.8 16.9 37.8 37.8v37.8h-75.6v-37.8c0-20.8 16.9-37.8 37.8-37.8z"/><path fill="#F8F4E4" d="M37.8 47.3l-37.8-28.4h94.5l37.9 28.4z"/><path fill="#E45D53" d="M61.5 0c7.8 0 14.2 6.3 14.2 14.2v14.2h-28.4v-14.2c0-7.9 6.3-14.2 14.2-14.2z"/><circle fill="#37433E" cx="397.1" cy="170.2" r="18.9"/><path fill="#37433E" d="M378.2 170.2h37.8v18.9h-37.8z"/><path fill="#9CD4DE" d="M401.8 189.1h4.7v75.6h-4.7zM411.3 189.1h4.7v75.6h-4.7zM392.4 189.1h4.7v75.6h-4.7zM382.9 189.1h4.7v75.6h-4.7z"/></svg>
