<svg xmlns="http://www.w3.org/2000/svg" width="778" height="379.8" viewBox="380 -181.8 778 379.8" enable-background="new 380 -181.8 778 379.8">
  <circle fill="#E55C53" cx="464.9" cy="-28.4" r="14.1"/>
  <circle fill="#E55C53" cx="440" cy="31.6" r="14.1"/>
  <circle fill="#E55C53" cx="440" cy="-88.4" r="14.1"/>
  <circle fill="#E55C53" cx="402" cy="53.6" r="14.1"/>
  <circle fill="#E55C53" cx="462" cy="-50.4" r="14.1"/>
  <circle fill="#E55C53" cx="453.5" cy="14.1" r="14.1"/>
  <circle fill="#E55C53" cx="422.4" cy="-101.9" r="14.1"/>
  <circle fill="#E55C53" cx="422.4" cy="45.1" r="14.1"/>
  <circle fill="#E55C53" cx="453.5" cy="-70.8" r="14.1"/>
  <circle fill="#E55C53" cx="462" cy="-6.4" r="14.1"/>
  <circle fill="#E55C53" cx="402" cy="-110.4" r="14.1"/>
  <path fill="#7EAB67" d="M1101.4 198c0-117.2-57-212.2-127.3-212.2s-127.3 95-127.3 212.2"/>
  <path fill="#36423D" stroke="#7EAB67" d="M974.1 14.1c-15.6 0-28.3 12.7-28.3 28.3v28.3h56.6v-28.3c0-15.7-12.7-28.3-28.3-28.3z"/>
  <path fill="#9CD4DE" d="M988.3 63.6c-7.1 0-7.1-7.1-14.1-7.1l-14.2 7.1s-7.1-7.1-14.2-7.1v24.8h7.1v102.6h7.1v-102.6h7.1v102.6h7.1v-102.6h7.1v102.6h7.1v-102.6h7.1v102.6h7.1v-127.39999999999999c-7.3 0-7.3 7.1-14.3 7.1z"/>
  <path fill="#309AB1" d="M995.3 60v123.8h-7.1v-120.2c3.6 0 5.4-1.8 7.1-3.6zM981.2 60v123.8h-7.1v-127.3c3.5 0 5.3 1.8 7.1 3.5zM967 183.9h-7v-120.3c3.5 0 5.3-1.8 7.1-3.5v123.8zM952.9 183.9h-7.1v-127.4c3.5 0 5.3 1.8 7.1 3.5v123.9z"/>
  <path fill="#9CD4DE" d="M691.1 162.6c26.5 0 26.5 14.1 53.1 14.1s26.5-14.1 53.1-14.1c26.5 0 26.5 14.1 53.1 14.1 26.5 0 26.5-14.1 53.1-14.1 26.5 0 26.5 14.1 53.1 14.1 26.5 0 26.5-14.1 53.1-14.1 26.5 0 26.5 14.1 53.1 14.1l53-14.1v35.4h-424.7v-35.4z"/>
  <path stroke="#F8F4E3" stroke-width="6" stroke-miterlimit="10" fill="none" d="M814.9-3.6v166.2"/>
  <g class="hero-img-fan">
    <path fill="#E55C53" d="M814.9-3.6c17.9 5.1 34.8 14.7 48.9 28.8 5.5 5.5 5.5 14.5 0 20.1s-14.5 5.5-20.1 0c-14-14.1-23.6-31-28.8-48.9zM766-52.5c5.5-5.5 14.5-5.5 20.1 0 14.1 14.1 23.7 31 28.8 48.9-17.9-5.1-34.8-14.8-48.9-28.9-5.5-5.5-5.5-14.5 0-20z"/>
    <path fill="#F8F4E3" d="M814.9-3.6c5.1-17.9 14.7-34.8 28.8-48.9 5.5-5.5 14.5-5.5 20.1 0s5.5 14.5 0 20.1c-14.1 14-31 23.7-48.9 28.8zM766 45.3c-5.5-5.5-5.5-14.5 0-20.1 14.1-14.1 31-23.7 48.9-28.8-5.1 17.9-14.7 34.8-28.8 48.9-5.6 5.5-14.5 5.5-20.1 0z"/>
  </g>
  <circle fill="#F8F4E3" cx="814.9" cy="-3.6" r="14.2"/>
  <circle fill="#E55C53" cx="814.9" cy="-3.6" r="3.5"/>
  <path fill="#F2D50A" d="M549.8 70.7h70.7v113.2h-70.7z"/>
  <circle fill="#7EAB67" cx="578.1" cy="-.1" r="70.7"/>
  <path fill="#F2D50A" d="M436.6-113.3h141.5v311.3h-141.5z"/>
  <path fill="#F8F4E3" d="M1158 198c0-39.1-25.3-70.7-56.6-70.7s-56.6 31.7-56.6 70.7"/>
  <path fill="#309AB1" d="M380-155.7v353.7h84.9l-28.3-70.7v-240.6z"/>
  <path fill="#7EAB67" d="M592.2-.1h141.5v70.7h-141.5z"/>
  <path fill="#309AB1" d="M592.2 21.1l28.3 35.4v-56.6h-28.3z"/>
  <path fill="#F2D50A" d="M861.1 198c-12.6-48.8-56.9-84.9-109.6-84.9-52.7 0-97.1 36.1-109.6 84.9h219.2z"/>
  <path fill="#309AB1" d="M450.7-14.2h84.9l56.6 70.7h-113.2l-28.3-35.4z"/>
  <path fill="#36423D" d="M450.7 198c-39.1 0-70.7-31.7-70.7-70.7 0-39.1 31.7-70.7 70.7-70.7h70.7v141.4h-70.7zM634.7 198c-39.1 0-70.7-31.7-70.7-70.7 0-39.1 31.7-70.7 70.7-70.7h70.7v141.4h-70.7z"/>
  <path fill="#309AB1" d="M705.4 56.5v-56.6h-42.4v56.6h-141.5c-39.1 0-70.7 31.7-70.7 70.7s31.7 70.7 70.7 70.7h183.9c39.1 0 70.7-31.7 70.7-70.7s-31.6-70.7-70.7-70.7zm0 127.4h-183.9c-31.3 0-56.6-25.3-56.6-56.6s25.3-56.6 56.6-56.6h183.9c31.3 0 56.6 25.3 56.6 56.6s-25.3 56.6-56.6 56.6z"/>
  <circle fill="#F8F4E3" cx="705.4" cy="127.3" r="56.6"/>
  <circle fill="#7EAB67" cx="705.4" cy="127.3" r="28.3"/>
  <circle fill="#36423D" cx="705.4" cy="127.3" r="7.1"/>
  <circle fill="#F8F4E3" cx="521.5" cy="127.3" r="56.6"/>
  <circle fill="#7EAB67" cx="521.5" cy="127.3" r="28.3"/>
  <circle fill="#36423D" cx="521.5" cy="127.3" r="7.1"/>
  <path fill="#E55C53" d="M507.3 56.5h113.2l-56.6-70.7h-113.2z"/>
  <path fill="#36423D" d="M507.3-99.1c31.3 0 56.6 25.3 56.6 56.6v28.3h-113.2v-28.3c0-31.3 25.4-56.6 56.6-56.6z"/>
  <path fill="#F8F4E3" d="M436.6-113.3l-56.6-42.4h141.5l56.6 42.4z"/>
  <path fill="#E55C53" d="M472-184c11.7 0 21.2 9.5 21.2 21.2v21.2h-42.4v-21.2c-.1-11.7 9.4-21.2 21.2-21.2z"/>
  <path fill="#F8F4E3" d="M705.4-28.4c-9.1 0-17.2 4.3-22.4 11-5.1 5.2-12.2 8.4-20.1 8.4s-15-3.3-20.1-8.4c-5.2-6.7-13.3-11-22.4-11-15.6 0-28.3 12.7-28.3 28.3s12.7 28.3 28.3 28.3c9.1 0 17.2-4.3 22.4-11 5.2-5.2 12.3-8.4 20.2-8.4 7.9 0 15 3.3 20.1 8.5 5.2 6.7 13.3 11 22.4 11 15.6 0 28.3-12.7 28.3-28.3s-12.7-28.4-28.4-28.4z"/>
  <circle fill="#E55C53" cx="620.5" cy="-.1" r="10.6"/>
  <circle fill="#E55C53" cx="705.4" cy="-.1" r="10.6"/>
</svg>
