<?xml version="1.0" encoding="utf-8"?>
<!-- Generator: Adobe Illustrator 18.1.1, SVG Export Plug-In . SVG Version: 6.00 Build 0)  -->
<!DOCTYPE svg PUBLIC "-//W3C//DTD SVG 1.1//EN" "http://www.w3.org/Graphics/SVG/1.1/DTD/svg11.dtd">
<svg version="1.1" id="Layer_1" xmlns="http://www.w3.org/2000/svg" xmlns:xlink="http://www.w3.org/1999/xlink" x="0px" y="0px"
	 width="1853.4px" height="382px" viewBox="0 0 1853.4 382" enable-background="new 0 0 1853.4 382" xml:space="preserve">
<g>
	<g>
		<path fill="#309BB2" d="M99,254.7c-54.7,0-99,57-99,127.3h198.1C198.1,311.7,153.7,254.7,99,254.7z"/>
		<g>
			<g>
				<g>
					<circle fill="#E45D53" cx="297.1" cy="70.7" r="14.1"/>
					<circle fill="#E45D53" cx="297.1" cy="240.5" r="14.1"/>
				</g>
				<g>
					<circle fill="#E45D53" cx="212.2" cy="155.6" r="14.1"/>
					<circle fill="#E45D53" cx="382" cy="155.6" r="14.1"/>
				</g>
			</g>
			<g>
				<g>
					<circle fill="#E45D53" cx="237.1" cy="95.6" r="14.1"/>
					<circle fill="#E45D53" cx="357.1" cy="215.7" r="14.1"/>
				</g>
				<g>
					<circle fill="#E45D53" cx="237.1" cy="215.7" r="14.1"/>
					<circle fill="#E45D53" cx="357.1" cy="95.6" r="14.1"/>
				</g>
			</g>
			<g>
				<g>
					<circle fill="#E45D53" cx="275.1" cy="73.6" r="14.1"/>
					<circle fill="#E45D53" cx="319.1" cy="237.6" r="14.1"/>
				</g>
				<g>
					<circle fill="#E45D53" cx="215.1" cy="177.6" r="14.1"/>
					<circle fill="#E45D53" cx="379.1" cy="133.7" r="14.1"/>
				</g>
			</g>
			<g>
				<g>
					<circle fill="#E45D53" cx="223.6" cy="113.2" r="14.1"/>
					<circle fill="#E45D53" cx="370.6" cy="198.1" r="14.1"/>
				</g>
				<g>
					<circle fill="#E45D53" cx="254.7" cy="229.1" r="14.1"/>
					<circle fill="#E45D53" cx="339.6" cy="82.1" r="14.1"/>
				</g>
			</g>
			<g>
				<g>
					<circle fill="#E45D53" cx="254.7" cy="82.1" r="14.1"/>
					<circle fill="#E45D53" cx="339.6" cy="229.1" r="14.1"/>
				</g>
				<g>
					<circle fill="#E45D53" cx="223.6" cy="198.1" r="14.1"/>
					<circle fill="#E45D53" cx="370.6" cy="113.2" r="14.1"/>
				</g>
			</g>
			<g>
				<g>
					<circle fill="#E45D53" cx="215.1" cy="133.7" r="14.1"/>
					<circle fill="#E45D53" cx="379.1" cy="177.6" r="14.1"/>
				</g>
				<g>
					<circle fill="#E45D53" cx="275.1" cy="237.6" r="14.1"/>
					<circle fill="#E45D53" cx="319.1" cy="73.6" r="14.1"/>
				</g>
			</g>
		</g>
		<circle fill="#F1D511" cx="297.1" cy="155.6" r="84.9"/>
		<g>
			<path fill="#F1D511" d="M1146,382c-12.6-65.1-56.9-113.2-109.6-113.2c-52.7,0-97.1,48.1-109.6,113.2H1146z"/>
			<g>
				<path fill="#7FAB67" d="M1004.5,382c0-117.2-57-212.2-127.3-212.2s-127.3,95-127.3,212.2"/>
				<path fill="#37433E" d="M877.2,198.1c-15.6,0-28.3,12.7-28.3,28.3v28.3h56.6v-28.3C905.5,210.7,892.8,198.1,877.2,198.1z"/>
				<path fill="#9CD4DE" d="M891.3,247.6c-7.1,0-7.1-7.1-14.1-7.1c-7.1,0-7.1,7.1-14.2,7.1c-7.1,0-7.1-7.1-14.2-7.1v24.8h7.1v102.6
					h7.1V265.3h7.1v102.6h7.1V265.3h7.1v102.6h7.1V265.3h7.1v102.6h7.1V265.3v-10.6v-14.1C898.4,240.5,898.4,247.6,891.3,247.6z"/>
				<path fill="#309BB2" d="M898.4,244.1v123.8h-7.1V247.6c0,0,0,0,0,0C894.9,247.6,896.6,245.8,898.4,244.1z"/>
				<path fill="#309BB2" d="M884.3,244.1v123.8h-7.1V240.5c0,0,0,0,0,0C880.7,240.5,882.5,242.3,884.3,244.1z"/>
				<path fill="#309BB2" d="M870.1,367.9H863V247.6c0,0,0,0,0,0c3.5,0,5.3-1.8,7.1-3.5V367.9z"/>
				<path fill="#309BB2" d="M856,367.9h-7.1V240.5c3.5,0,5.3,1.8,7.1,3.5V367.9z"/>
			</g>
			<path fill="#7FAB67" d="M396.1,382c0-117.2-63.3-212.2-141.5-212.2s-141.5,95-141.5,212.2"/>
			<path fill="#9CD4DE" d="M594.2,346.6c26.5,0,26.5,14.1,53.1,14.1c26.5,0,26.5-14.1,53.1-14.1c26.5,0,26.5,14.1,53.1,14.1
				c26.5,0,26.5-14.1,53.1-14.1c26.5,0,26.5,14.1,53.1,14.1c26.5,0,26.5-14.1,53.1-14.1c26.5,0,26.5,14.1,53,14.1
				c26.5,0,26.5-14.1,53-14.1V382H594.2V346.6z"/>
			<g>
				<line fill="none" stroke="#F8F4E4" stroke-width="6" stroke-miterlimit="10" x1="718" y1="180.4" x2="718" y2="346.6"/>
				<g>
					<path fill="#E45D53" d="M718,180.4c17.9,5.1,34.8,14.7,48.9,28.8c5.5,5.5,5.5,14.5,0,20.1c-5.5,5.5-14.5,5.5-20.1,0
						C732.8,215.2,723.1,198.3,718,180.4z"/>
					<path fill="#E45D53" d="M669.1,131.5c5.5-5.5,14.5-5.5,20.1,0c14.1,14.1,23.7,31,28.8,48.9c-17.9-5.1-34.8-14.7-48.9-28.8
						C663.6,146,663.6,137,669.1,131.5z"/>
					<path fill="#F8F4E4" d="M718,180.4c5.1-17.9,14.7-34.8,28.8-48.9c5.5-5.5,14.5-5.5,20.1,0c5.5,5.5,5.5,14.5,0,20.1
						C752.8,165.7,735.9,175.3,718,180.4z"/>
					<path fill="#F8F4E4" d="M669.1,229.3c-5.5-5.5-5.5-14.5,0-20.1c14.1-14.1,31-23.7,48.9-28.8c-5.1,17.9-14.7,34.8-28.8,48.9
						C683.6,234.8,674.7,234.8,669.1,229.3z"/>
					<circle fill="#F8F4E4" cx="718" cy="180.4" r="14.2"/>
					<circle fill="#E45D53" cx="718" cy="180.4" r="3.5"/>
				</g>
			</g>
			<rect x="466.9" y="254.7" fill="#F1D511" width="70.7" height="113.2"/>
			<circle fill="#7FAB67" cx="495.2" cy="183.9" r="70.7"/>
			<rect x="353.7" y="70.7" fill="#F1D511" width="141.5" height="311.3"/>
			<path fill="#F8F4E4" d="M1061.1,382c0-39.1-25.3-70.7-56.6-70.7c-31.3,0-56.6,31.7-56.6,70.7"/>
			<polygon fill="#309BB2" points="297.1,28.3 297.1,382 382,382 353.7,311.3 353.7,70.7 			"/>
			<g>
				
					<rect x="238.8" y="253" transform="matrix(-0.7071 -0.7071 0.7071 -0.7071 212.9331 707.2853)" fill="#F8F4E4" width="28.3" height="113.2"/>
				<circle fill="#F1D511" cx="283" cy="259.5" r="28.3"/>
				<circle fill="#F1D511" cx="202.9" cy="339.6" r="28.3"/>
				<circle fill="#E45D53" cx="202.9" cy="339.6" r="14.1"/>
				<circle fill="#E45D53" cx="283" cy="259.5" r="14.1"/>
				<g>
					<path fill="#37433E" d="M182.9,359.6c11.1,11.1,29,11.1,40,0l10,10c-16.6,16.6-43.4,16.6-60,0s-16.6-43.4,0-60l10,10
						C171.9,330.6,171.9,348.5,182.9,359.6z"/>
					<path fill="#37433E" d="M303,239.5c-11.1-11.1-29-11.1-40,0l-10-10c16.6-16.6,43.4-16.6,60,0s16.6,43.4,0,60l-10-10
						C314,268.5,314,250.6,303,239.5z"/>
					
						<rect x="260.9" y="268" transform="matrix(-0.7071 -0.7071 0.7071 -0.7071 227.9396 743.514)" fill="#37433E" width="14.1" height="113.2"/>
					
						<rect x="210.9" y="217.9" transform="matrix(-0.7071 -0.7071 0.7071 -0.7071 177.9184 622.752)" fill="#37433E" width="14.1" height="113.2"/>
				</g>
				<path fill="#F8F4E4" d="M293,209.5l20,20c-16.6-16.6-43.4-16.6-60,0l-80,80c-16.6,16.6-16.6,43.4,0,60l-20-20
					c-16.6-16.6-16.6-43.4,0-60l80-80C249.5,192.9,276.4,192.9,293,209.5z"/>
			</g>
			<g>
				<rect x="509.3" y="183.9" fill="#7FAB67" width="141.5" height="70.7"/>
				<polygon fill="#309BB2" points="509.3,205.1 537.6,240.5 537.6,183.9 509.3,183.9 				"/>
			</g>
			<path fill="#F1D511" d="M778.1,382c-12.6-48.8-56.9-84.9-109.6-84.9c-52.7,0-97.1,36.1-109.6,84.9H778.1z"/>
			<polygon fill="#309BB2" points="367.9,169.8 452.7,169.8 509.3,240.5 396.1,240.5 367.9,205.1 			"/>
			<g>
				<path fill="#37433E" d="M367.9,382c-39.1,0-70.7-31.7-70.7-70.7c0-39.1,31.7-70.7,70.7-70.7h70.7V382H367.9z"/>
				<path fill="#37433E" d="M551.8,382c-39.1,0-70.7-31.7-70.7-70.7c0-39.1,31.7-70.7,70.7-70.7h70.7V382H551.8z"/>
				<path fill="#309BB2" d="M622.5,240.5v-56.6h-42.4v56.6H438.6c-39.1,0-70.7,31.7-70.7,70.7s31.7,70.7,70.7,70.7h183.9
					c39.1,0,70.7-31.7,70.7-70.7S661.6,240.5,622.5,240.5z M622.5,367.9H438.6c-31.3,0-56.6-25.3-56.6-56.6s25.3-56.6,56.6-56.6
					h183.9c31.3,0,56.6,25.3,56.6,56.6S653.8,367.9,622.5,367.9z"/>
			</g>
			<g>
				<circle fill="#F8F4E4" cx="622.5" cy="311.3" r="56.6"/>
				<circle fill="#7FAB67" cx="622.5" cy="311.3" r="28.3"/>
				<circle fill="#37433E" cx="622.5" cy="311.3" r="7.1"/>
			</g>
			<g>
				<circle fill="#F8F4E4" cx="438.6" cy="311.3" r="56.6"/>
				<circle fill="#7FAB67" cx="438.6" cy="311.3" r="28.3"/>
				<circle fill="#37433E" cx="438.6" cy="311.3" r="7.1"/>
			</g>
			<polygon fill="#E45D53" points="424.4,240.5 537.6,240.5 481,169.8 367.9,169.8 			"/>
			<path fill="#37433E" d="M424.4,84.9c31.3,0,56.6,25.3,56.6,56.6v28.3H367.9v-28.3C367.9,110.2,393.2,84.9,424.4,84.9z"/>
			<polygon fill="#F8F4E4" points="353.7,70.7 297.1,28.3 438.6,28.3 495.2,70.7 			"/>
			<path fill="#E45D53" d="M389.1,0c11.7,0,21.2,9.5,21.2,21.2v21.2h-42.4V21.2C367.9,9.5,377.4,0,389.1,0z"/>
			<path fill="#F8F4E4" d="M622.5,155.6c-9.1,0-17.2,4.3-22.4,11c-5.1,5.2-12.2,8.4-20.1,8.4s-15-3.3-20.1-8.4
				c-5.2-6.7-13.3-11-22.4-11c-15.6,0-28.3,12.7-28.3,28.3s12.7,28.3,28.3,28.3c9.1,0,17.2-4.3,22.4-11c5.1-5.2,12.2-8.5,20.1-8.5
				c7.9,0,15,3.3,20.1,8.5c5.2,6.7,13.3,11,22.4,11c15.6,0,28.3-12.7,28.3-28.3S638.1,155.6,622.5,155.6z"/>
			<circle fill="#E45D53" cx="537.6" cy="183.9" r="10.6"/>
			<circle fill="#E45D53" cx="622.5" cy="183.9" r="10.6"/>
		</g>
		<rect x="283" y="297.1" fill="#F1D511" width="84.9" height="84.9"/>
		<rect x="254.7" y="297.1" fill="#309BB2" width="28.3" height="84.9"/>
		<polygon fill="#F8F4E4" points="367.9,297.1 325.4,339.6 283,297.1 		"/>
		<polygon fill="#E45D53" points="325.4,339.6 367.9,382 283,382 		"/>
	</g>
	<g>
		<path fill="#309BB2" d="M1711.9,155.6c-78.1,0-141.5,101.3-141.5,226.4h283C1853.4,257,1790.1,155.6,1711.9,155.6z"/>
		<g>
			
				<rect x="1586.3" y="197.4" transform="matrix(0.7071 -0.7071 0.7071 0.7071 289.1893 1206.076)" fill="#F8F4E4" width="28.3" height="113.2"/>
			<circle fill="#F1D511" cx="1570.4" cy="203.9" r="28.3"/>
			<circle fill="#F1D511" cx="1650.5" cy="284" r="28.3"/>
			<circle fill="#E45D53" cx="1650.5" cy="284" r="14.1"/>
			<circle fill="#E45D53" cx="1570.4" cy="203.9" r="14.1"/>
			<g>
				<path fill="#37433E" d="M1670.5,304c-11.1,11.1-29,11.1-40,0l-10,10c16.6,16.6,43.4,16.6,60,0c16.6-16.6,16.6-43.4,0-60l-10,10
					C1681.5,275,1681.5,292.9,1670.5,304z"/>
				<path fill="#37433E" d="M1550.4,183.9c11.1-11.1,29-11.1,40,0l10-10c-16.6-16.6-43.4-16.6-60,0c-16.6,16.6-16.6,43.4,0,60l10-10
					C1539.4,212.9,1539.4,195,1550.4,183.9z"/>
				
					<rect x="1578.4" y="212.4" transform="matrix(0.7071 -0.7071 0.7071 0.7071 274.1829 1199.8602)" fill="#37433E" width="14.1" height="113.2"/>
				
					<rect x="1628.4" y="162.3" transform="matrix(0.7071 -0.7071 0.7071 0.7071 324.2042 1220.5797)" fill="#37433E" width="14.1" height="113.2"/>
			</g>
			<path fill="#F8F4E4" d="M1560.4,153.9l-20,20c16.6-16.6,43.4-16.6,60,0l80,80c16.6,16.6,16.6,43.4,0,60l20-20
				c16.6-16.6,16.6-43.4,0-60l-80-80C1603.9,137.3,1577,137.3,1560.4,153.9z"/>
		</g>
		<rect x="1457.3" y="84.9" fill="#F1D511" width="70.7" height="297.1"/>
		<rect x="1315.8" y="84.9" fill="#309BB2" width="141.5" height="297.1"/>
		<path fill="#7FAB67" d="M1223.8,382c-12.6-48.8-56.9-84.9-109.6-84.9c-52.7,0-97.1,36.1-109.6,84.9H1223.8z"/>
		<rect x="1287.5" y="283" fill="#37433E" width="84.9" height="99"/>
		<polygon fill="#F1D511" points="1429,382 1429,212.2 1372.4,268.8 1372.4,382 		"/>
		<g>
			<path fill="#E45D53" d="M1372.4,283c-23.4,0-42.4,19-42.4,42.4s19,42.4,42.4,42.4h42.4V283H1372.4z"/>
			<path fill="#37433E" d="M1188.4,382c-31.3,0-56.6-25.3-56.6-56.6s25.3-56.6,56.6-56.6h42.4V382H1188.4z"/>
			<circle fill="#F1D511" cx="1230.9" cy="325.4" r="42.4"/>
			<circle fill="#E45D53" cx="1230.9" cy="325.4" r="14.1"/>
			<circle fill="#F1D511" cx="1414.8" cy="325.4" r="42.4"/>
			<circle fill="#E45D53" cx="1414.8" cy="325.4" r="14.1"/>
			<path fill="#309BB2" d="M1230.9,367.9c-23.4,0-42.4-19-42.4-42.4s19-42.4,42.4-42.4v-14.1c-31.3,0-56.6,25.3-56.6,56.6
				s25.3,56.6,56.6,56.6V367.9z"/>
			<path fill="#309BB2" d="M1414.8,283c23.4,0,42.4,19,42.4,42.4s-19,42.4-42.4,42.4V382c31.3,0,56.6-25.3,56.6-56.6
				s-25.3-56.6-56.6-56.6V283z"/>
			<rect x="1230.9" y="268.8" fill="#309BB2" width="183.9" height="14.1"/>
			<rect x="1230.9" y="367.9" fill="#309BB2" width="183.9" height="14.1"/>
		</g>
		<polygon fill="#E45D53" points="1429,212.2 1344.1,212.2 1287.5,268.8 1372.4,268.8 		"/>
		<circle fill="#37433E" cx="1386.5" cy="155.6" r="42.4"/>
		<rect x="1344.1" y="155.6" fill="#37433E" width="84.9" height="56.6"/>
		<path fill="#7FAB67" d="M1637.6,382c-12.6-48.8-56.9-84.9-109.6-84.9c-52.7,0-97.1,36.1-109.6,84.9H1637.6z"/>
		<polygon fill="#7FAB67" points="1457.3,84.9 1429,14.1 1315.8,84.9 		"/>
		<polygon fill="#F8F4E4" points="1429,14.1 1528,84.9 1457.3,84.9 		"/>
		<g>
			<rect x="1216.7" y="212.2" fill="#7FAB67" width="56.6" height="56.6"/>
			<rect x="1273.3" y="212.2" fill="#F1D511" width="28.3" height="56.6"/>
			<polygon fill="#F8F4E4" points="1216.7,212.2 1245,240.5 1273.3,212.2 			"/>
			<polygon fill="#37433E" points="1245,240.5 1216.7,268.8 1273.3,268.8 			"/>
		</g>
		<g>
			<rect x="1542.1" y="268.8" fill="#309BB2" width="99" height="113.2"/>
			<rect x="1556.3" y="283" fill="#37433E" width="70.7" height="84.9"/>
			<rect x="1641.2" y="268.8" fill="#F1D511" width="56.6" height="113.2"/>
			<rect x="1655.3" y="283" fill="#E45D53" width="28.3" height="84.9"/>
		</g>
	</g>
</g>
</svg>
