<svg xmlns="http://www.w3.org/2000/svg" width="776.3" height="379.8" viewBox="346 -149.8 776.3 379.8" enable-background="new 346 -149.8 776.3 379.8">
  <path fill="#7EAB67" d="M1066 230.2c0-116.6-56.7-211.2-126.7-211.2s-126.7 94.6-126.7 211.2"/>
  <path fill="#36423D" stroke="#7EAB67" d="M939.3 47.2c-15.6 0-28.2 12.6-28.2 28.2v28.2h56.3v-28.3c0-15.5-12.6-28.1-28.1-28.1z"/>
  <path fill="#9CD4DE" d="M953.4 96.4c-7 0-7-7-14.1-7-7 0-7 7-14.1 7-7 0-7-7-14.1-7v24.6h7v102.1h7v-102.1h7v102.1h7v-102.1h7v102.1h7v-102.1h7v102.1h7v-126.7c-6.7 0-6.7 7-13.7 7z"/>
  <path fill="#309AB1" d="M960.4 92.9v123.2h-7v-119.7c3.5 0 5.2-1.7 7-3.5zm-14.1 0v123.2h-7v-126.7c3.5 0 5.3 1.8 7 3.5zm-14.1 123.2h-7v-119.7c3.5 0 5.3-1.8 7-3.5v123.2zm-14 0h-7v-126.7c3.5 0 5.3 1.8 7 3.5v123.2z"/>
  <path fill="#9CD4DE" d="M657.7 195l52.8 14.1 52.8-14.1 52.8 14.1 52.8-14.1 52.8 14.1 52.8-14.1 52.8 14.1 52.8-14.1v35.2h-422.4v-35.2z"/>
  <path stroke="#F8F4E3" stroke-width="6" stroke-miterlimit="10" d="M780.9 29.6v165.4" fill="none"/>
  <g class="hero-img-fan">
    <path fill="#E55C53" d="M780.9 29.6c17.8 5.1 34.6 14.7 48.7 28.7 5.5 5.5 5.5 14.5 0 20s-14.5 5.5-20 0c-14.1-14.1-23.6-30.9-28.7-48.7zm-48.7-48.7c5.5-5.5 14.5-5.5 20 0 14 14 23.6 30.8 28.7 48.7-17.8-5.1-34.6-14.7-48.7-28.7-5.5-5.6-5.5-14.5 0-20z"/>
    <path fill="#F8F4E3" d="M780.9 29.6c5.1-17.8 14.7-34.6 28.7-48.7 5.5-5.5 14.5-5.5 20 0s5.5 14.5 0 20c-14.1 14-30.9 23.6-48.7 28.7zm-48.7 48.6c-5.5-5.5-5.5-14.5 0-20 14-14 30.8-23.6 48.7-28.7-5.1 17.8-14.7 34.6-28.7 48.7-5.5 5.5-14.5 5.5-20 0z"/>
  </g>
  <circle fill="#F8F4E3" cx="780.9" cy="29.6" r="14.1"/>
  <circle fill="#E55C53" cx="780.9" cy="29.6" r="3.5"/>
  <path fill="#F2D50A" d="M515 103.5h70.4v112.6h-70.4v-112.6z"/>
  <circle fill="#7EAB67" cx="543.1" cy="33.1" r="70.4"/>
  <path fill="#F2D50A" d="M402.3-79.6h140.8v309.8h-140.8v-309.8z"/>
  <path fill="#F8F4E3" d="M1122.3 230.2c0-38.9-25.2-70.4-56.3-70.4-31.1 0-56.3 31.5-56.3 70.4"/>
  <path fill="#F2D50A" d="M824.7 230.2c-12.5-48.6-56.6-84.5-109.1-84.5s-96.6 35.9-109.1 84.5h218.2z"/>
  <path fill="#309AB1" d="M346-121.8v352h84.5l-28.2-70.4v-239.4l-56.3-42.2z"/>
  <g fill="#36423D">
    <path d="M346 159.8c0 38.9 31.5 70.4 70.4 70.4h70.4v-140.8h-70.4c-38.9 0-70.4 31.5-70.4 70.4zM646.5 89.4v14.1h-61.1v-12.7c-32.2 6.5-56.4 34.9-56.4 69 0 38.9 31.5 70.4 70.4 70.4h70.4v-140.8h-23.3z"/>
  </g>
  <path fill="#7EAB67" d="M557.2 33.1h140.8v70.4h-140.8v-70.4z"/>
  <path fill="#309AB1" d="M557.2 54.2l28.2 35.2v-56.3h-28.2v21.1zM416.4 19h84.5l56.3 70.4h-112.6l-28.2-35.2v-35.2zM669.8 89.4v-56.3h-42.2v56.3h-140.8c-38.9 0-70.4 31.5-70.4 70.4s31.5 70.4 70.4 70.4h183c38.9 0 70.4-31.5 70.4-70.4s-31.5-70.4-70.4-70.4zm0 126.7h-183c-31.1 0-56.3-25.2-56.3-56.3s25.2-56.3 56.3-56.3h183c31.1 0 56.3 25.2 56.3 56.3s-25.2 56.3-56.3 56.3z"/>
  <circle fill="#F8F4E3" cx="669.8" cy="159.8" r="56.3"/>
  <circle fill="#7EAB67" cx="669.8" cy="159.8" r="28.2"/>
  <circle fill="#36423D" cx="669.8" cy="159.8" r="7"/>
  <circle fill="#F8F4E3" cx="486.8" cy="159.8" r="56.3"/>
  <circle fill="#7EAB67" cx="486.8" cy="159.8" r="28.2"/>
  <circle fill="#36423D" cx="486.8" cy="159.8" r="7"/>
  <path fill="#E55C53" d="M472.7 89.4h112.7l-56.4-70.4h-112.6l56.3 70.4z"/>
  <path fill="#36423D" d="M472.7-65.5c31.1 0 56.3 25.2 56.3 56.3v28.2h-112.6v-28.2c0-31.1 25.2-56.3 56.3-56.3z"/>
  <path fill="#F8F4E3" d="M402.3-79.6l-56.3-42.2h140.8l56.3 42.2h-140.8z"/>
  <path fill="#E55C53" d="M437.5-150c11.7 0 21.1 9.5 21.1 21.1v21.1h-42.2v-21.1c0-11.6 9.5-21.1 21.1-21.1z"/>
  <path fill="#F8F4E3" d="M669.8 4.9c-9.1 0-17.1 4.3-22.3 11-5.1 5.2-12.1 8.4-20 8.4-7.8 0-14.9-3.2-20-8.4-5.2-6.7-13.2-11-22.3-11-15.6 0-28.2 12.6-28.2 28.2s12.6 28.2 28.2 28.2c9.1 0 17.1-4.3 22.2-10.9 5.1-5.2 12.2-8.4 20-8.4 7.8 0 14.9 3.2 20 8.4 5.2 6.6 13.2 10.9 22.2 10.9 15.6 0 28.2-12.6 28.2-28.2s-12.4-28.2-28-28.2z"/>
  <circle fill="#E55C53" cx="585.4" cy="33.1" r="10.6"/>
  <circle fill="#E55C53" cx="669.8" cy="33.1" r="10.6"/>
</svg>
