<svg xmlns="http://www.w3.org/2000/svg" width="216" height="41.2" viewBox="0 0 216 41.2"><path fill="#fff" d="M60.4 24.5c-3.3 0-5.4-2-5.4-6.1s2.1-6.1 5.4-6.1c1.2 0 2.5.4 3.5 1l2-3.9c-1.8-.9-3.8-1.5-6-1.5-6.3 0-10.8 3.9-10.8 10.5 0 6.7 4.5 10.5 10.8 10.5 1.8 0 3.6-.4 5.1-1.1l-2-3.9c-.7.4-1.6.6-2.6.6zM150.6 17.7c.9 0 1.6.3 2.2.9l1.2-3.4c-1.3-.8-2.8-1.2-4.4-1.2-4.3 0-7.8 2.7-7.8 7.3s3.5 7.3 7.8 7.3c1.6 0 3.2-.4 4.4-1.2l-1.2-3.4c-.6.6-1.4.9-2.2.9-1.8 0-3.2-1.1-3.2-3.7 0-2.5 1.5-3.5 3.2-3.5zM73.7 14c-4.3 0-7.8 2.7-7.8 7.3s3.5 7.3 7.8 7.3 7.8-2.7 7.8-7.3c0-4.5-3.5-7.3-7.8-7.3zm0 11.5c-1.2 0-2.2-1.5-2.2-4.1s1-4.1 2.2-4.1c1.2 0 2.2 1.5 2.2 4.1 0 2.6-1 4.1-2.2 4.1zM181.5 14c-4.3 0-7.8 2.7-7.8 7.3s3.5 7.3 7.8 7.3 7.8-2.7 7.8-7.3c-.1-4.5-3.5-7.3-7.8-7.3zm0 11.5c-1.2 0-2.2-1.5-2.2-4.1s1-4.1 2.2-4.1c1.2 0 2.2 1.5 2.2 4.1 0 2.6-1 4.1-2.2 4.1zM198.7 14c-4.3 0-7.8 2.7-7.8 7.3s3.5 7.3 7.8 7.3 7.8-2.7 7.8-7.3c0-4.5-3.5-7.3-7.8-7.3zm0 11.5c-1.2 0-2.2-1.5-2.2-4.1s1-4.1 2.2-4.1c1.2 0 2.2 1.5 2.2 4.1.1 2.6-.9 4.1-2.2 4.1zM110.2 25.3c-1.3 0-2.2-.8-2.5-2.3 4.6.1 7.5-1.8 7.5-4.5s-2.5-4.4-5.4-4.4c-4.3 0-7.8 2.7-7.8 7.3s3.1 7.3 7.4 7.3c4.1 0 6.5-3.1 6.5-3.1l-1.4-2.3c-.1 0-2.1 2-4.3 2zm-.4-8.1c.8 0 1.2.7 1.2 1.4 0 1.3-.8 2-3.4 2.1.1-2.2 1-3.5 2.2-3.5zM98.6 23.2v-15.8h-5.3v8.9c-1-1.5-2.6-2.3-4.3-2.3-3.2 0-5.7 2.7-5.7 7.3s2.6 7.3 5.7 7.3c1.9 0 3.6-1 4.6-2.8.7 2 2.3 2.8 4.1 2.8 1.8 0 2.7-.5 2.7-.5l.3-3.8c.1.1-2.1 1.4-2.1-1.1zm-7.6 2.1c-1.2 0-2.2-1.4-2.2-3.9s1-3.9 2.2-3.9c1.2 0 2.2 1.4 2.2 3.9.1 2.5-.9 3.9-2.2 3.9zM170.2 23.2v-5.3c0-2.4-.8-3.9-3.3-3.9-2 0-3.9 1-4.8 2.8v-9.4h-5.3v20.9h5.3v-5c0-4.6 1.4-5.9 2.2-5.9.6 0 .8.4.8 1.4v5c0 3.6 2 4.9 4.4 4.9 1.8 0 2.7-.5 2.7-.5l.3-3.8s-2.3 1.1-2.3-1.2zM213.7 23.2v-15.8h-5.3v16.4c0 3.6 2.1 4.9 4.4 4.9 1.8 0 2.7-.5 2.7-.5l.3-3.8c.1 0-2.1 1.3-2.1-1.2zM134.6 16c-3.2-1.2-4-1.5-4-2.6 0-1 .7-1.6 1.8-1.6 2.6 0 5.9 1.8 5.9 1.8l1.5-3.5s-2.4-2.2-7-2.2c-5 0-7.5 2.6-7.5 6.1 0 2.5 1.2 4.9 5.4 6.2 3.2 1.1 3.8 1.8 3.8 2.8 0 1.3-.9 1.8-2.4 1.8-3 0-6.5-2.3-6.5-2.3l-1.8 3.5s3.5 2.8 8.2 2.8c5.2 0 8-2.6 8-6.5 0-2.8-.7-4.6-5.4-6.3z"/><g fill="#fff"><path d="M21.5 9.1v5l5.7 5.3-5.7 5.4v5l10.9-10.4zM17.2 24.8l-5.6-5.4 5.6-5.3v-5l-10.9 10.3 10.9 10.4z"/></g><path fill="#fff" d="M19.4 0c-10.8 0-19.5 8.7-19.5 19.4s8.7 19.4 19.4 19.4 19.4-8.7 19.4-19.4-8.6-19.4-19.3-19.4zm0 35.4c-8.8 0-16-7.1-16-16 0-8.8 7.1-16 16-16 8.8 0 16 7.1 16 16-.1 8.9-7.2 16-16 16z"/><g fill="#fff"><path d="M123.5 38.6c0-1 .7-1.4 1.8-1.4.4 0 .8.1 1.1.2v-.1c0-.5-.3-.8-.9-.8-.5 0-.8.1-1.2.2l-.3-1c.5-.2 1-.4 1.7-.4s1.2.2 1.5.5c.3.3.5.8.5 1.4v2.6h-1.2v-.5c-.3.3-.7.6-1.3.6-1 .1-1.7-.4-1.7-1.3zm2.9-.3v-.2c-.2-.1-.5-.2-.8-.2-.5 0-.9.2-.9.6 0 .3.3.5.7.5.6.1 1-.2 1-.7zM131.3 34.1h2.4c1.4 0 2.2.8 2.2 2 0 1.3-1 2-2.3 2h-1v1.7h-1.3v-5.7zm2.3 2.9c.6 0 1-.4 1-.9 0-.6-.4-.9-1-.9h-1v1.8h1zM136.7 33.9h1.3v6h-1.3v-6zM139.1 38.3v-2.9h1.3v2.5c0 .6.3.9.8.9s.8-.3.8-.9v-2.5h1.3v4.4h-1.3v-.6c-.3.4-.7.7-1.3.7-1 .1-1.6-.6-1.6-1.6zM144.3 35.5h1.3v.9c.3-.6.7-1 1.4-1v1.3h-.1c-.8 0-1.3.5-1.3 1.6v1.6h-1.3v-4.4zM147.3 38.6c0-1 .7-1.4 1.8-1.4.4 0 .8.1 1.1.2v-.1c0-.5-.3-.8-.9-.8-.5 0-.8.1-1.2.2l-.3-1c.5-.2 1-.4 1.7-.4s1.2.2 1.5.5c.3.3.5.8.5 1.4v2.6h-1.2v-.5c-.3.3-.7.6-1.3.6-1 .1-1.7-.4-1.7-1.3zm2.9-.3v-.2c-.2-.1-.5-.2-.8-.2-.5 0-.9.2-.9.6 0 .3.3.5.7.5.6.1 1-.2 1-.7zM152.5 33.9h1.3v6h-1.3v-6zM154.6 39.3l.5-.8c.5.3 1 .5 1.4.5.4 0 .5-.1.5-.3 0-.3-.4-.4-.9-.5-.6-.2-1.3-.5-1.3-1.3 0-.9.7-1.4 1.6-1.4.6 0 1.2.2 1.7.5l-.5.9c-.4-.3-.9-.4-1.2-.4-.3 0-.5.1-.5.3 0 .2.4.4.9.5.6.2 1.3.5 1.3 1.3 0 1-.7 1.4-1.7 1.4-.5 0-1.2-.2-1.8-.7zM159.1 33.9h1.3v1.1h-1.3v-1.1zm0 1.6h1.3v4.4h-1.3v-4.4zM161.6 40.8l.4-.9c.5.3.9.4 1.5.4.9 0 1.3-.4 1.3-1.2v-.2c-.4.4-.8.7-1.4.7-1 0-2-.8-2-2.1s.9-2.1 2-2.1c.7 0 1.1.3 1.4.7v-.6h1.3v3.4c0 .8-.2 1.4-.6 1.7-.4.4-1 .6-1.9.6-.8 0-1.5-.2-2-.4zm3.2-3.3c0-.6-.5-1-1.1-1s-1.1.4-1.1 1 .5 1 1.1 1 1.1-.4 1.1-1zM167.1 33.9h1.3v2.2c.3-.4.7-.7 1.3-.7.9 0 1.5.6 1.5 1.6v2.9h-1.3v-2.5c0-.6-.3-.9-.8-.9s-.8.3-.8.9v2.5h-1.3v-6zM172.5 38.6v-2.1h-.5v-1.1h.5v-1.1h1.3v1.1h1v1.1h-1v1.9c0 .3.1.4.4.4.2 0 .4-.1.6-.2v1c-.3.2-.6.3-1 .3-.8.1-1.3-.3-1.3-1.3zM178 37.7c0-1.3 1-2.3 2.3-2.3.8 0 1.4.3 1.8.7l-.8.8c-.3-.3-.6-.5-1-.5-.6 0-1.1.6-1.1 1.2 0 .7.4 1.2 1.1 1.2.4 0 .7-.2 1-.5l.7.7c-.4.5-.9.8-1.8.8-1.3.2-2.2-.8-2.2-2.1zM182.5 37.7c0-1.3 1-2.3 2.4-2.3s2.4 1 2.4 2.3c0 1.3-1 2.3-2.4 2.3-1.3 0-2.4-1-2.4-2.3zm3.6 0c0-.7-.5-1.2-1.2-1.2s-1.1.6-1.1 1.2c0 .7.5 1.2 1.2 1.2s1.1-.6 1.1-1.2zM188.2 35.5h1.3v.6c.3-.4.7-.7 1.3-.7.6 0 1 .3 1.2.7.4-.5.9-.7 1.5-.7.9 0 1.5.6 1.5 1.6v2.9h-1.3v-2.5c0-.6-.3-.9-.7-.9-.5 0-.8.3-.8.9v2.5h-1.2v-2.5c0-.6-.3-.9-.7-.9-.5 0-.8.3-.8.9v2.5h-1.3v-4.4zM196.1 35.5h1.3v.6c.3-.4.7-.7 1.4-.7 1 0 2 .8 2 2.3 0 1.5-1 2.3-2 2.3-.7 0-1.1-.3-1.4-.7v1.9h-1.3v-5.7zm3.4 2.2c0-.8-.5-1.2-1.1-1.2s-1.1.5-1.1 1.2.5 1.2 1.1 1.2 1.1-.5 1.1-1.2zM201.4 38.6c0-1 .7-1.4 1.8-1.4.4 0 .8.1 1.1.2v-.1c0-.5-.3-.8-.9-.8-.5 0-.8.1-1.2.2l-.3-1c.5-.2 1-.4 1.7-.4s1.2.2 1.5.5c.3.3.5.8.5 1.4v2.6h-1.2v-.5c-.3.3-.7.6-1.3.6-1 .1-1.7-.4-1.7-1.3zm2.9-.3v-.2c-.2-.1-.5-.2-.8-.2-.5 0-.9.2-.9.6 0 .3.3.5.7.5.6.1 1-.2 1-.7zM206.5 35.5h1.3v.6c.3-.4.7-.7 1.3-.7.9 0 1.5.6 1.5 1.6v2.9h-1.3v-2.5c0-.6-.3-.9-.8-.9s-.8.3-.8.9v2.5h-1.3v-4.4zM211.5 40.9l.4-.9c.2.1.4.2.5.2.2 0 .3-.1.4-.3l-1.7-4.4h1.3l1 3 1-3h1.3l-1.7 4.5c-.3.9-.7 1.2-1.5 1.2-.4 0-.7-.1-1-.3z"/></g></svg>