<svg xmlns="http://www.w3.org/2000/svg" width="260" height="50" viewBox="0 0 260 50" xmlns:xlink="http://www.w3.org/1999/xlink"><defs><path id="a" d="M.255 9.06h8.318V.22H.255v8.84z"/><path id="c" d="M.21 7.328h11.095V.316H.21z"/></defs><g fill="none" fill-rule="evenodd" opacity=".6"><path fill="#6D7D79" d="M72.774 29.637c-3.967 0-6.45-2.382-6.45-7.376 0-4.99 2.483-7.37 6.45-7.37 1.477 0 2.953.46 4.222 1.25l2.453-4.75c-2.15-1.12-4.62-1.77-7.16-1.77-7.55 0-12.97 4.64-12.97 12.65 0 8.01 5.41 12.65 12.96 12.65 2.17 0 4.27-.47 6.18-1.3l-2.43-4.7c-1.03.47-2.15.74-3.27.74m108.54-8.22c1.04 0 1.98.39 2.68 1.09l1.43-4.09c-1.51-.9-3.35-1.38-5.32-1.38-5.17 0-9.36 3.28-9.36 8.83 0 5.54 4.19 8.82 9.36 8.82 1.98 0 3.81-.48 5.32-1.38l-1.43-4.1c-.7.706-1.64 1.088-2.68 1.088-2.16 0-3.91-1.29-3.91-4.43 0-3.15 1.74-4.436 3.9-4.436m-92.56 9.4c-1.49 0-2.7-1.827-2.7-4.973s1.21-4.97 2.7-4.97c1.49 0 2.69 1.824 2.69 4.97 0 3.144-1.21 4.97-2.7 4.97zm0-13.795c-5.17 0-9.36 3.28-9.36 8.823 0 5.546 4.19 8.82 9.36 8.82 5.17 0 9.36-3.28 9.36-8.823 0-5.54-4.19-8.82-9.36-8.82zm129.63 13.79c-1.49 0-2.7-1.83-2.7-4.976 0-3.144 1.21-4.97 2.7-4.97s2.69 1.826 2.69 4.97c0 3.146-1.2 4.973-2.69 4.973zm0-13.8c-5.17 0-9.36 3.28-9.36 8.82 0 5.548 4.19 8.827 9.36 8.827 5.17 0 9.36-3.28 9.36-8.82s-4.19-8.82-9.36-8.82zm20.77 13.797c-1.49 0-2.7-1.824-2.7-4.97 0-3.144 1.21-4.97 2.7-4.97s2.69 1.826 2.69 4.97c0 3.146-1.21 4.97-2.7 4.97zm0-13.792c-5.17 0-9.36 3.28-9.36 8.82 0 5.545 4.19 8.824 9.36 8.824 5.17 0 9.36-3.28 9.36-8.82 0-5.54-4.19-8.82-9.36-8.82zm-107.01 3.84c.96 0 1.42.81 1.42 1.64 0 1.51-1 2.386-4.09 2.54.18-2.655 1.3-4.18 2.66-4.18zm.56 9.69c-1.62 0-2.66-.91-3.07-2.73 5.56.16 9.03-2.133 9.03-5.46 0-3.216-2.96-5.35-6.53-5.35-5.17 0-9.36 3.28-9.36 8.82 0 5.545 3.72 8.824 8.89 8.824 4.92 0 7.83-3.723 7.83-3.723l-1.72-2.8s-2.49 2.41-5.06 2.41zm-23.1.03c-1.49 0-2.7-1.745-2.7-4.75 0-3.002 1.21-4.746 2.7-4.746s2.7 1.745 2.7 4.748c0 3.006-1.2 4.75-2.69 4.75zm9.07-2.5V9.018h-6.37v10.75c-1.26-1.767-3.11-2.73-5.17-2.73-3.8 0-6.88 3.28-6.88 8.82 0 5.544 3.09 8.823 6.89 8.823 2.29 0 4.31-1.18 5.56-3.33.82 2.39 2.81 3.33 4.96 3.33 2.18 0 3.28-.61 3.28-.61l.39-4.56s-2.64 1.52-2.64-1.39zm86.1 0v-6.4c0-2.85-.98-4.67-4.02-4.67-2.44 0-4.64 1.233-5.778 3.33V9.018h-6.37v25.15h6.37V28.15c0-5.514 1.72-7.042 2.7-7.042.67 0 1.02.48 1.02 1.64v5.99c0 4.322 2.44 5.93 5.25 5.93 2.17 0 3.27-.613 3.27-.613l.4-4.564s-2.82 1.34-2.82-1.39m52.415 0V9.02h-6.37v19.73c0 4.324 2.54 5.932 5.34 5.932 2.174 0 3.274-.61 3.274-.61l.4-4.564s-2.64 1.52-2.64-1.397M162 19.39c-3.91-1.42-4.774-1.82-4.774-3.18 0-1.24.83-1.93 2.17-1.93 3.16 0 7.09 2.1 7.09 2.1l1.78-4.15s-2.885-2.62-8.444-2.62c-5.98 0-9.07 3.15-9.07 7.31 0 3.06 1.5 5.87 6.47 7.51 3.84 1.26 4.57 2.16 4.57 3.37 0 1.53-1.12 2.19-2.87 2.19-3.58 0-7.79-2.75-7.79-2.75l-2.14 4.24s4.23 3.42 9.905 3.42c6.297 0 9.618-3.17 9.618-7.8 0-3.5-.91-5.68-6.528-7.72M25.937 11.1v6.018l6.83 6.436-6.83 6.436v6.018L39.12 23.554 25.938 11.1m-5.096 18.89l-6.834-6.436 6.834-6.436V11.1L7.656 23.554l13.186 12.454V29.99"/><path fill="#6D7D79" d="M23.39 42.75c-10.602 0-19.196-8.595-19.196-19.196 0-10.602 8.594-19.195 19.196-19.195 10.6 0 19.195 8.59 19.195 19.19 0 10.6-8.594 19.19-19.195 19.19zm0-42.586C10.472.164 0 10.636 0 23.554c0 12.917 10.472 23.39 23.39 23.39 12.917 0 23.39-10.473 23.39-23.39 0-12.918-10.473-23.39-23.39-23.39zm128.778 46.093v-.27c-.258-.118-.595-.198-.964-.198-.645 0-1.042.25-1.042.73v.02c0 .41.338.64.825.64.705 0 1.18-.39 1.18-.94zm-3.464.347v-.02c0-1.16.883-1.697 2.143-1.697.537 0 .923.09 1.3.218v-.09c0-.625-.386-.972-1.14-.972-.576 0-.983.11-1.47.287l-.377-1.15c.586-.26 1.162-.428 2.065-.428.824 0 1.42.22 1.797.596.397.397.575.982.575 1.698v3.086h-1.458v-.575c-.37.407-.88.675-1.61.675-1.01 0-1.83-.576-1.83-1.628zm12.07-1.916c.763 0 1.21-.457 1.21-1.053v-.02c0-.684-.476-1.05-1.24-1.05h-1.18v2.123h1.21zm-2.74-3.504h2.84c1.655 0 2.66.983 2.66 2.402v.02c0 1.608-1.25 2.442-2.81 2.442h-1.16v2.084h-1.53v-6.948zm6.54 6.948h1.51v-7.245h-1.51m2.888 5.37v-3.445h1.508v2.967c0 .71.338 1.08.914 1.08.576 0 .942-.37.942-1.09v-2.96h1.51v5.32h-1.51v-.76c-.347.44-.793.85-1.558.85-1.14 0-1.806-.76-1.806-1.98m6.223-3.45h1.508v1.07c.308-.73.805-1.21 1.697-1.17v1.58h-.08c-1.002 0-1.617.6-1.617 1.87v1.96h-1.508v-5.3m7.047 3.44v-.27c-.258-.12-.596-.2-.964-.2-.645 0-1.042.25-1.042.73v.02c0 .41.338.64.825.64.71 0 1.19-.39 1.19-.936zm-3.465.35v-.02c0-1.16.883-1.7 2.144-1.7.54 0 .93.09 1.31.22V45c0-.624-.39-.97-1.14-.97-.57 0-.98.11-1.46.29l-.38-1.15c.59-.26 1.16-.43 2.07-.43.83 0 1.42.22 1.8.594.4.396.58.98.58 1.7v3.085h-1.45v-.58c-.37.4-.87.67-1.61.67-1 0-1.83-.58-1.83-1.63zm6.263 1.53h1.51v-7.24h-1.51m2.51 6.54l.646-.99c.576.41 1.18.63 1.678.63.436 0 .635-.15.635-.39v-.02c0-.33-.52-.436-1.11-.61-.75-.22-1.59-.57-1.59-1.6v-.02c0-1.08.87-1.69 1.94-1.69.67 0 1.41.23 1.98.62l-.58 1.04c-.53-.31-1.05-.5-1.44-.5-.37 0-.56.155-.56.364v.02c0 .3.5.44 1.08.64.74.25 1.61.61 1.61 1.58v.02c0 1.18-.89 1.72-2.04 1.72-.75 0-1.58-.25-2.29-.807"/><g transform="translate(191.215 40.666)"><mask id="b" fill="#fff"><use xlink:href="#a"/></mask><path fill="#6D7D79" d="M.295 7.467h1.51v-5.32H.295v5.32zM.255 1.56h1.59V.22H.255v1.34zm6.83 2.988v-.02c0-.724-.566-1.23-1.3-1.23-.736 0-1.29.506-1.29 1.23v.02c0 .735.554 1.232 1.29 1.232s1.3-.507 1.3-1.232zM3.25 8.518l.516-1.13c.547.307 1.092.486 1.797.486 1.032 0 1.52-.497 1.52-1.45v-.258c-.447.537-.935.864-1.74.864-1.24 0-2.36-.903-2.36-2.482v-.02c0-1.587 1.14-2.48 2.36-2.48.826 0 1.312.346 1.72.793v-.69H8.57v4.12c0 .96-.23 1.65-.674 2.1-.496.5-1.26.72-2.293.72-.864 0-1.677-.2-2.353-.55z" mask="url(#b)"/></g><path fill="#6D7D79" d="M201.137 40.887h1.51v2.68c.346-.448.793-.855 1.557-.855 1.142 0 1.806.755 1.806 1.976v3.444h-1.508v-2.967c0-.715-.338-1.082-.914-1.082-.576 0-.942.367-.942 1.082v2.967h-1.51v-7.245m6.432 5.737v-2.522h-.635v-1.29h.635v-1.36h1.51v1.36h1.25v1.29h-1.25v2.274c0 .347.148.516.485.516.278 0 .527-.07.744-.19v1.212c-.317.188-.684.308-1.19.308-.924 0-1.55-.368-1.55-1.598m6.59-1.124v-.018c0-1.52 1.16-2.77 2.79-2.77 1.003 0 1.63.338 2.124.894l-.92.993c-.33-.36-.67-.59-1.21-.59-.75 0-1.29.66-1.29 1.45v.02c0 .81.53 1.47 1.35 1.47.51 0 .86-.22 1.22-.57l.89.89c-.51.56-1.11.97-2.17.97-1.59 0-2.77-1.23-2.77-2.75m9.79 0v-.02c0-.79-.56-1.47-1.4-1.47-.86 0-1.38.66-1.38 1.45v.02c0 .78.57 1.47 1.4 1.47.87 0 1.38-.67 1.38-1.45zm-4.27 0v-.02c0-1.53 1.24-2.77 2.89-2.77 1.65 0 2.87 1.22 2.87 2.75v.02c0 1.53-1.23 2.77-2.89 2.77-1.65 0-2.87-1.22-2.87-2.75zm6.85-2.69h1.51v.75c.35-.45.81-.86 1.57-.86.7 0 1.23.31 1.5.84.47-.55 1.03-.85 1.75-.85 1.13 0 1.8.68 1.8 1.96v3.46h-1.5v-2.96c0-.72-.32-1.08-.88-1.08s-.91.36-.91 1.08v2.96h-1.5v-2.97c0-.72-.32-1.08-.88-1.08s-.91.36-.91 1.08v2.97h-1.51v-5.3m13.51 2.67v-.02c0-.89-.59-1.47-1.3-1.47-.7 0-1.29.58-1.29 1.47v.02c0 .88.59 1.47 1.29 1.47.71 0 1.3-.58 1.3-1.47zM236 42.8h1.51v.76c.37-.497.877-.865 1.66-.865 1.24 0 2.42.975 2.42 2.75v.02c0 1.78-1.16 2.75-2.42 2.75-.8 0-1.3-.366-1.66-.792v2.28H236v-6.9zm9.85 3.44v-.27c-.26-.12-.595-.2-.963-.2-.64 0-1.04.26-1.04.734v.02c0 .41.34.65.827.65.704 0 1.18-.39 1.18-.935zm-3.464.346v-.02c0-1.16.88-1.7 2.14-1.7.54 0 .924.09 1.3.218V45c0-.624-.385-.97-1.14-.97-.575 0-.98.11-1.47.29l-.376-1.15c.59-.26 1.164-.43 2.07-.43.823 0 1.42.22 1.796.594.4.396.578.98.578 1.697v3.09h-1.46v-.57c-.364.41-.87.68-1.604.68-1 0-1.823-.57-1.823-1.62z"/><g transform="translate(248.32 42.396)"><mask id="d" fill="#fff"><use xlink:href="#c"/></mask><path fill="#6D7D79" d="M.21.416h1.507v.754c.348-.447.795-.854 1.56-.854 1.14 0 1.805.755 1.805 1.976v3.444h-1.51V2.77c0-.716-.336-1.083-.912-1.083-.576 0-.943.367-.943 1.082v2.96H.21V.41m5.963 6.58l.507-1.092c.2.12.446.207.645.207.258 0 .397-.078.527-.347L5.766.416h1.6l1.21 3.623L9.736.41h1.57L9.26 5.862c-.406 1.086-.843 1.49-1.746 1.49-.546 0-.953-.14-1.34-.364" mask="url(#d)"/></g></g></svg>