<svg xmlns="http://www.w3.org/2000/svg" width="170" height="38.1" viewBox="-126.4 382 170 38.1" enable-background="new -126.4 382 170 38.1"><path fill="#fff" d="M-87.4 383.9v34.3h-34.3v-34.3h34.3m1.9-1.9h-38.1v38h38.1v-38zM-95.6 401.6l-.9-.4c-1.6-.7-2.2-1.1-2.2-2.2 0-.9.7-1.6 1.8-1.6 1 0 1.7.4 2.3 1.6l2.9-1.8c-1.2-2.1-2.9-2.9-5.2-2.9-3.3 0-5.3 2.1-5.3 4.8 0 3 1.8 4.4 4.4 5.5l.9.4c1.7.7 2.7 1.2 2.7 2.4 0 1-1 1.8-2.5 1.8-1.8 0-2.8-1-3.6-2.2l-3 1.7c1 2.1 3.3 3.7 6.7 3.7 3.5 0 6-1.8 6-5.1-.2-3-2-4.4-5-5.7zm-9.9 5.3v-12.5h-3.7v12.4c0 1.8-.8 2.3-2 2.3s-1.8-.9-2.3-1.9l-3 1.8c.9 1.8 2.6 3.3 5.5 3.3 3.3.1 5.5-1.6 5.5-5.4z"/><circle fill="#fff" cx="-122.6" cy="408.6" r="3.8"/><path fill="#fff" d="M-79.8 405.9l1.7-1c.5.9 1 1.4 2 1.4 1.1 0 1.9-.5 1.9-2v-9.5h2v9.6c0 2.6-1.6 3.9-3.8 3.9-2.1-.2-3.2-1.2-3.8-2.4zm13.3-4.7c-1.1 0-1.7.5-2.1 1l-1.1-1.1c.7-.9 1.7-1.5 3.4-1.5 2 0 3.5 1.1 3.5 3.5v4.9h-2v-1.2c-.6.9-1.4 1.4-2.6 1.4-1.6 0-3-.8-3-2.6 0-1.7 1.4-2.4 3.2-2.5h2.2c.2-1.3-.4-1.9-1.5-1.9zm-.4 3.2c-.9 0-1.4.3-1.4 1s.6 1.1 1.6 1.1c1.1 0 2-.6 2-1.5v-.7h-2.2zm5.2-4.6h2.2l1.7 3.6c.3.7.6 1.8.6 1.8s.2-1.1.5-1.8l1.7-3.6h2l-4.1 8.4h-.2l-4.4-8.4zm13.2 1.4c-1.1 0-1.7.5-2.1 1l-1.1-1.1c.7-.9 1.7-1.5 3.4-1.5 2 0 3.5 1.1 3.5 3.5v4.9h-2v-1.2c-.6.9-1.3 1.4-2.6 1.4-1.6 0-3-.8-3-2.6 0-1.7 1.4-2.4 3.2-2.5h2.2c.1-1.3-.5-1.9-1.5-1.9zm-.5 3.2c-.9 0-1.4.3-1.4 1s.6 1.1 1.6 1.1c1.1 0 2-.6 2-1.5v-.7h-2.2zm5.7 1l1.7-1c.6 1 1.4 1.9 3 1.9 1.3 0 2.3-.7 2.3-1.8s-.8-1.7-2.2-2.3l-.9-.4c-2-.9-3.1-1.9-3.1-3.9s1.5-3.4 3.7-3.4c1.8 0 3 .7 3.8 2.1l-1.6 1c-.5-.9-1.1-1.3-2.1-1.3s-1.7.7-1.7 1.5c0 1 .6 1.4 1.9 2l.9.4c2.3 1 3.5 2 3.5 4.2 0 2.3-1.8 3.7-4.3 3.7s-4.2-1.2-4.9-2.7zm10.8-1.5c0-2.4 1.9-4.3 4.4-4.3 1.5 0 2.5.6 3.3 1.6l-1.4 1.1c-.4-.6-1.1-1-1.9-1-1.5 0-2.3 1.1-2.3 2.5s.9 2.5 2.3 2.5c1 0 1.6-.4 2-.9l1.3 1.2c-.8.9-1.8 1.5-3.4 1.5-2.4 0-4.3-1.8-4.3-4.2zm9.6-4.1h2v1.5c.6-1.3 1.5-1.7 2.4-1.7.6 0 1 .1 1.3.3l-.7 1.8c-.3-.1-.6-.3-1.1-.3-1.2 0-2 .7-2 2.5v4h-2c.1 0 .1-8.1.1-8.1zm7-3.2c0-.8.6-1.3 1.3-1.3.7 0 1.3.5 1.3 1.3s-.6 1.3-1.3 1.3c-.6 0-1.3-.6-1.3-1.3zm.3 3.2h2v8.2h-2v-8.2zm4.5 0h2v1.5c.5-1 1.5-1.7 2.9-1.7 2.1 0 3.8 1.8 3.8 4.2s-1.7 4.3-3.9 4.3c-1.4 0-2.3-.7-2.8-1.6v5.6h-2v-12.3zm6.7 4c0-1.5-.9-2.5-2.3-2.5s-2.4 1-2.4 2.5 1 2.6 2.4 2.6c1.5 0 2.3-1 2.3-2.6zm4.5 1.4v-3.8h-1.2v-1.7h1.2v-4.3h2v4.3h2.2v1.7h-2.2v3.8c0 1 .3 1.2.8 1.2s.8-.2 1-.4l1 1.3c-.4.4-1 .8-2.1.8-1.5 0-2.6-.7-2.7-2.9zM6.9 406.7c0-.8.6-1.3 1.3-1.3.7 0 1.3.6 1.3 1.3s-.6 1.3-1.3 1.3c-.7.1-1.3-.5-1.3-1.3zm4-2.8c0-2.4 1.9-4.3 4.4-4.3 1.5 0 2.5.6 3.3 1.6l-1.4 1.1c-.4-.6-1.1-1-1.9-1-1.5 0-2.3 1.1-2.3 2.5s.9 2.5 2.3 2.5c1 0 1.6-.4 2-.9l1.3 1.2c-.8.9-1.8 1.5-3.4 1.5-2.4 0-4.3-1.8-4.3-4.2zm9.1 0c0-2.4 2-4.3 4.4-4.3 2.5 0 4.4 1.9 4.4 4.3s-1.9 4.3-4.4 4.3c-2.4-.1-4.4-1.9-4.4-4.3zm6.9 0c0-1.5-.9-2.6-2.4-2.6s-2.4 1-2.4 2.6c0 1.5 1 2.6 2.4 2.6 1.4-.1 2.4-1.2 2.4-2.6zm4.1-4.1h2v1.4c.6-1 1.4-1.6 2.4-1.6 1.2 0 2 .6 2.4 1.6.7-1 1.6-1.6 2.8-1.6 2 0 3.1 1.3 3.1 3.4v5h-2v-4.9c0-1.1-.4-1.8-1.5-1.8s-1.9.7-1.9 2v4.5h-2v-4.8c0-1.1-.4-1.8-1.5-1.8-1.2 0-1.9.7-1.9 2v4.5h-2v-7.9z"/></svg>