<svg xmlns="http://www.w3.org/2000/svg" width="357.2" height="80" viewBox="-96 -20 357.2 80" enable-background="new -96 -20 357.2 80"><path fill="#fff" d="M-14-16v72h-72v-72h72m4-4h-80v80h80v-80z"/><g fill="#fff"><path d="M-31.4 21.2l-1.9-.8c-3.3-1.4-4.7-2.3-4.7-4.6 0-1.9 1.4-3.3 3.7-3.3 2.2 0 3.6.9 4.9 3.3l6-3.8c-2.5-4.4-6-6.1-10.9-6.1-6.9 0-11.2 4.4-11.2 10.1 0 6.2 3.7 9.2 9.2 11.6l1.9.8c3.5 1.5 5.6 2.5 5.6 5.1 0 2.2-2 3.8-5.2 3.8-3.8 0-5.9-2-7.6-4.7l-6.2 3.6c2.2 4.4 6.9 7.8 14 7.8 7.3 0 12.7-3.8 12.7-10.7-.1-6.4-3.7-9.3-10.3-12.1zM-52 32.4V6.2h-7.7v26.1c0 3.8-1.6 4.8-4.1 4.8-2.6 0-3.7-1.8-4.9-3.9L-75 37c1.8 3.8 5.4 7 11.5 7 6.8 0 11.5-3.6 11.5-11.6z"/></g><circle fill="#3F4A43" cx="-88" cy="36" r="8"/><path fill="#fff" d="M1.8 30.3l3.5-2.2c1 1.8 2.1 3 4.2 3 2.3 0 3.9-1.1 3.9-4.3v-20h4.3v20.1c0 5.5-3.3 8.2-8 8.2-4.2-.1-6.6-2.3-7.9-4.8zM29.9 20.4c-2.3 0-3.6 1-4.5 2.1L23 20.1c1.5-1.8 3.6-3.1 7.2-3.1 4.1 0 7.3 2.3 7.3 7.4v10.2h-4.1l.1-2.5C32.2 34 30.6 35 28 35c-3.4 0-6.2-1.6-6.2-5.5 0-3.6 2.9-5.1 6.8-5.2h4.7c0-2.7-1.2-3.9-3.4-3.9zm-1 6.8c-1.8 0-3 .7-3 2.2 0 1.5 1.2 2.3 3.3 2.3 2.4 0 4.1-1.2 4.1-3.1v-1.4h-4.4zM40 17.4h4.6l3.5 7.6c.7 1.4 1.2 3.7 1.2 3.7s.5-2.3 1.1-3.7l3.5-7.6h4.2L49.4 35h-.5L40 17.4zM67.6 20.4c-2.3 0-3.6 1-4.5 2.1l-2.4-2.4c1.5-1.8 3.6-3.1 7.2-3.1 4.1 0 7.3 2.3 7.3 7.4v10.2H71l.1-2.5C69.9 34 68.3 35 65.7 35c-3.4 0-6.2-1.6-6.2-5.5 0-3.6 2.9-5.1 6.8-5.2H71c0-2.7-1.2-3.9-3.4-3.9zm-1 6.8c-1.8 0-3 .7-3 2.2 0 1.5 1.2 2.3 3.3 2.3 2.4 0 4.1-1.2 4.1-3.1v-1.4h-4.4zM78.5 29.2l3.6-2c1.3 2.2 3 3.9 6.4 3.9 2.8 0 4.8-1.5 4.8-3.8 0-2.4-1.6-3.5-4.7-4.8l-1.8-.8c-4.1-1.8-6.5-3.9-6.5-8.2 0-4.1 3.2-7.1 7.8-7.1 3.7 0 6.2 1.4 7.9 4.4l-3.4 2.1c-1.1-1.8-2.3-2.7-4.5-2.7s-3.6 1.4-3.6 3.2c0 2.1 1.2 3 4 4.3l1.8.8c4.8 2.1 7.3 4.3 7.3 8.8 0 4.9-3.8 7.7-9.1 7.7s-8.5-2.7-10-5.8zM101.3 26c0-5.1 3.9-9 9.2-9 3.2 0 5.3 1.2 7 3.3l-3 2.4c-.8-1.2-2.3-2-4-2-3.1 0-4.9 2.3-4.9 5.3s1.8 5.3 4.9 5.3c2.1 0 3.3-.9 4.2-1.9l2.8 2.5c-1.7 1.9-3.7 3.1-7.1 3.1-5.2 0-9.1-3.8-9.1-9zM121.4 17.4h4.1v3.2c1.2-2.7 3.1-3.6 5-3.6 1.2 0 2.1.3 2.8.7l-1.4 3.7c-.7-.3-1.3-.6-2.3-.6-2.5 0-4.1 1.4-4.1 5.3v8.4h-4.1V17.4zM136.2 10.7c0-1.6 1.3-2.7 2.7-2.7 1.5 0 2.8 1.1 2.8 2.7s-1.3 2.7-2.8 2.7c-1.4 0-2.7-1.1-2.7-2.7zm.7 6.7h4.2v17.2h-4.2V17.4zM146.4 17.4h4.2l-.1 3.2c1.1-2.1 3.2-3.6 6.1-3.6 4.4 0 8 3.7 8 8.9s-3.6 9-8.1 9c-2.9 0-4.9-1.4-5.9-3.3v11.7h-4.2V17.4zm13.9 8.5c0-3.1-1.9-5.3-4.9-5.3-3 0-5 2.1-5 5.3 0 3.2 2 5.4 5 5.4 3.1 0 4.9-2.1 4.9-5.4zM169.9 28.8v-7.9h-2.6v-3.5h2.6v-9h4.1v9h4.6v3.5H174v8c0 2 .7 2.5 1.7 2.5s1.6-.5 2.1-.8l2 2.8c-.9.8-2.2 1.6-4.4 1.6-3.2 0-5.5-1.6-5.5-6.2z"/><path fill="#F5E89C" d="M184 32c0-1.6 1.3-2.8 2.8-2.8 1.5 0 2.8 1.2 2.8 2.8 0 1.6-1.3 2.8-2.8 2.8-1.5.1-2.8-1.1-2.8-2.8zM192.5 26c0-5.1 3.9-9 9.2-9 3.2 0 5.3 1.2 7 3.3l-3 2.4c-.8-1.2-2.3-2-4-2-3.1 0-4.9 2.3-4.9 5.3s1.8 5.3 4.9 5.3c2.1 0 3.3-.9 4.2-1.9l2.8 2.5c-1.7 1.9-3.7 3.1-7.1 3.1-5.1 0-9.1-3.8-9.1-9zM211.6 26c0-5.1 4.1-9 9.3-9 5.3 0 9.3 3.9 9.3 9s-4 9-9.3 9c-5.2 0-9.3-3.9-9.3-9zm14.4 0c0-3.2-1.9-5.4-5-5.4s-5 2.2-5 5.4 2 5.4 5 5.4 5-2.3 5-5.4zM234.6 17.4h4.1l-.1 3c1.2-2.2 2.9-3.3 5.1-3.3 2.5 0 4.1 1.2 5 3.3 1.4-2.1 3.4-3.3 5.9-3.3 4.1 0 6.5 2.7 6.5 7.1v10.5H257V24.5c0-2.4-.9-3.7-3.2-3.7-2.4 0-3.9 1.5-3.9 4.3v9.4h-4.1v-10c0-2.4-.8-3.7-3.2-3.7-2.5 0-3.9 1.5-3.9 4.3v9.4h-4.1V17.4z"/></svg>